STARTFONT 2.1
COMMENT
COMMENT  This font is copyrighted by its author, who reserves all rights under
COMMENT  national and international copyright laws.
COMMENT
COMMENT  Produced with bdfedit, a tcl/tk font editing program
COMMENT    written by Thomas A. Fine
COMMENT    fine@head-cfa.harvard.edu
COMMENT    http://hea-www.harvard.edu/~fine/
FONT 5x8
SIZE 13 72 72
FONTBOUNDINGBOX 5 8 0 -1
STARTPROPERTIES 10
FOUNDRY "Fitz"
FAMILY_NAME ""
WEIGHT_NAME "Medium"
SLANT "R"
SETWIDTH_NAME "Normal"
SPACING "c"
CHARSET_REGISTRY "ISO-8859"
CHARSET_ENCODING "1"
FONT_ASCENT  7
FONT_DESCENT 1
ENDPROPERTIES
CHARS 118
STARTCHAR C005
ENCODING 5
SWIDTH 384 0
DWIDTH 5 0
BBX 5 8 0 -1
BITMAP
00
00
00
00
00
00
00
00
ENDCHAR
STARTCHAR C006
ENCODING 6
SWIDTH 384 0
DWIDTH 5 0
BBX 5 8 0 -1
BITMAP
00
00
00
00
00
00
00
00
ENDCHAR
STARTCHAR C007
ENCODING 7
SWIDTH 384 0
DWIDTH 5 0
BBX 5 8 0 -1
BITMAP
00
00
00
00
00
00
00
00
ENDCHAR
STARTCHAR C010
ENCODING 8
SWIDTH 384 0
DWIDTH 5 0
BBX 5 8 0 -1
BITMAP
00
00
00
00
00
00
00
00
ENDCHAR
STARTCHAR C040
ENCODING 32
SWIDTH 384 0
DWIDTH 5 0
BBX 5 8 0 -1
BITMAP
00
00
00
00
00
00
00
00
ENDCHAR
STARTCHAR C041
ENCODING 33
SWIDTH 384 0
DWIDTH 5 0
BBX 5 8 0 -1
BITMAP
00
80
80
80
80
00
80
00
ENDCHAR
STARTCHAR C042
ENCODING 34
SWIDTH 384 0
DWIDTH 5 0
BBX 5 8 0 -1
BITMAP
a0
a0
00
00
00
00
00
00
ENDCHAR
STARTCHAR C043
ENCODING 35
SWIDTH 384 0
DWIDTH 5 0
BBX 5 8 0 -1
BITMAP
00
50
f8
50
50
f8
50
00
ENDCHAR
STARTCHAR C044
ENCODING 36
SWIDTH 384 0
DWIDTH 5 0
BBX 5 8 0 -1
BITMAP
20
78
a0
70
28
f0
20
00
ENDCHAR
STARTCHAR C045
ENCODING 37
SWIDTH 384 0
DWIDTH 5 0
BBX 5 8 0 -1
BITMAP
c8
88
10
20
40
88
98
00
ENDCHAR
STARTCHAR C046
ENCODING 38
SWIDTH 384 0
DWIDTH 5 0
BBX 5 8 0 -1
BITMAP
20
50
20
58
90
78
00
00
ENDCHAR
STARTCHAR C047
ENCODING 39
SWIDTH 384 0
DWIDTH 5 0
BBX 5 8 0 -1
BITMAP
40
40
80
00
00
00
00
00
ENDCHAR
STARTCHAR C050
ENCODING 40
SWIDTH 384 0
DWIDTH 5 0
BBX 5 8 0 -1
BITMAP
20
40
80
80
80
40
20
00
ENDCHAR
STARTCHAR C051
ENCODING 41
SWIDTH 384 0
DWIDTH 5 0
BBX 5 8 0 -1
BITMAP
80
40
20
20
20
40
80
00
ENDCHAR
STARTCHAR C052
ENCODING 42
SWIDTH 384 0
DWIDTH 5 0
BBX 5 8 0 -1
BITMAP
00
00
50
20
f8
20
50
00
ENDCHAR
STARTCHAR C053
ENCODING 43
SWIDTH 384 0
DWIDTH 5 0
BBX 5 8 0 -1
BITMAP
00
00
20
20
f8
20
20
00
ENDCHAR
STARTCHAR C054
ENCODING 44
SWIDTH 384 0
DWIDTH 5 0
BBX 5 8 0 -1
BITMAP
00
00
00
00
40
40
80
00
ENDCHAR
STARTCHAR C055
ENCODING 45
SWIDTH 384 0
DWIDTH 5 0
BBX 5 8 0 -1
BITMAP
00
00
00
f0
00
00
00
00
ENDCHAR
STARTCHAR C056
ENCODING 46
SWIDTH 384 0
DWIDTH 5 0
BBX 5 8 0 -1
BITMAP
00
00
00
00
00
00
80
00
ENDCHAR
STARTCHAR C057
ENCODING 47
SWIDTH 384 0
DWIDTH 5 0
BBX 5 8 0 -1
BITMAP
08
08
10
20
40
80
80
00
ENDCHAR
STARTCHAR C060
ENCODING 48
SWIDTH 384 0
DWIDTH 5 0
BBX 5 8 0 -1
BITMAP
00
70
88
88
88
88
70
00
ENDCHAR
STARTCHAR C061
ENCODING 49
SWIDTH 384 0
DWIDTH 5 0
BBX 5 8 0 -1
BITMAP
00
40
c0
40
40
40
40
00
ENDCHAR
STARTCHAR C062
ENCODING 50
SWIDTH 384 0
DWIDTH 5 0
BBX 5 8 0 -1
BITMAP
00
60
90
10
20
40
f0
00
ENDCHAR
STARTCHAR C063
ENCODING 51
SWIDTH 384 0
DWIDTH 5 0
BBX 5 8 0 -1
BITMAP
00
60
90
20
10
90
60
00
ENDCHAR
STARTCHAR C064
ENCODING 52
SWIDTH 384 0
DWIDTH 5 0
BBX 5 8 0 -1
BITMAP
00
20
60
a0
a0
f0
20
00
ENDCHAR
STARTCHAR C065
ENCODING 53
SWIDTH 384 0
DWIDTH 5 0
BBX 5 8 0 -1
BITMAP
00
f0
80
e0
10
90
60
00
ENDCHAR
STARTCHAR C066
ENCODING 54
SWIDTH 384 0
DWIDTH 5 0
BBX 5 8 0 -1
BITMAP
00
70
80
e0
90
90
60
00
ENDCHAR
STARTCHAR C067
ENCODING 55
SWIDTH 384 0
DWIDTH 5 0
BBX 5 8 0 -1
BITMAP
00
f0
10
20
40
40
40
00
ENDCHAR
STARTCHAR C070
ENCODING 56
SWIDTH 384 0
DWIDTH 5 0
BBX 5 8 0 -1
BITMAP
00
60
90
60
90
90
60
00
ENDCHAR
STARTCHAR C071
ENCODING 57
SWIDTH 384 0
DWIDTH 5 0
BBX 5 8 0 -1
BITMAP
00
60
90
90
70
10
e0
00
ENDCHAR
STARTCHAR C072
ENCODING 58
SWIDTH 384 0
DWIDTH 5 0
BBX 5 8 0 -1
BITMAP
00
00
00
80
00
80
00
00
ENDCHAR
STARTCHAR C073
ENCODING 59
SWIDTH 384 0
DWIDTH 5 0
BBX 5 8 0 -1
BITMAP
00
00
00
40
00
40
40
80
ENDCHAR
STARTCHAR C074
ENCODING 60
SWIDTH 384 0
DWIDTH 5 0
BBX 5 8 0 -1
BITMAP
00
00
20
40
80
40
20
00
ENDCHAR
STARTCHAR C075
ENCODING 61
SWIDTH 384 0
DWIDTH 5 0
BBX 5 8 0 -1
BITMAP
00
00
00
e0
00
e0
00
00
ENDCHAR
STARTCHAR C076
ENCODING 62
SWIDTH 384 0
DWIDTH 5 0
BBX 5 8 0 -1
BITMAP
00
00
80
40
20
40
80
00
ENDCHAR
STARTCHAR C077
ENCODING 63
SWIDTH 384 0
DWIDTH 5 0
BBX 5 8 0 -1
BITMAP
60
90
10
60
40
00
40
00
ENDCHAR
STARTCHAR C100
ENCODING 64
SWIDTH 384 0
DWIDTH 5 0
BBX 5 8 0 -1
BITMAP
70
88
a8
a8
90
80
78
00
ENDCHAR
STARTCHAR C101
ENCODING 65
SWIDTH 384 0
DWIDTH 5 0
BBX 5 8 0 -1
BITMAP
00
60
90
90
f0
90
90
00
ENDCHAR
STARTCHAR C102
ENCODING 66
SWIDTH 384 0
DWIDTH 5 0
BBX 5 8 0 -1
BITMAP
00
e0
90
e0
90
90
e0
00
ENDCHAR
STARTCHAR C103
ENCODING 67
SWIDTH 384 0
DWIDTH 5 0
BBX 5 8 0 -1
BITMAP
00
60
90
80
80
90
60
00
ENDCHAR
STARTCHAR C104
ENCODING 68
SWIDTH 384 0
DWIDTH 5 0
BBX 5 8 0 -1
BITMAP
00
e0
90
88
88
90
e0
00
ENDCHAR
STARTCHAR C105
ENCODING 69
SWIDTH 384 0
DWIDTH 5 0
BBX 5 8 0 -1
BITMAP
00
f0
80
e0
80
80
f0
00
ENDCHAR
STARTCHAR C106
ENCODING 70
SWIDTH 384 0
DWIDTH 5 0
BBX 5 8 0 -1
BITMAP
00
f0
80
e0
80
80
80
00
ENDCHAR
STARTCHAR C107
ENCODING 71
SWIDTH 384 0
DWIDTH 5 0
BBX 5 8 0 -1
BITMAP
00
70
88
80
98
88
78
00
ENDCHAR
STARTCHAR C110
ENCODING 72
SWIDTH 384 0
DWIDTH 5 0
BBX 5 8 0 -1
BITMAP
00
90
90
f0
90
90
90
00
ENDCHAR
STARTCHAR C111
ENCODING 73
SWIDTH 384 0
DWIDTH 5 0
BBX 5 8 0 -1
BITMAP
00
e0
40
40
40
40
e0
00
ENDCHAR
STARTCHAR C112
ENCODING 74
SWIDTH 384 0
DWIDTH 5 0
BBX 5 8 0 -1
BITMAP
00
10
10
10
10
90
60
00
ENDCHAR
STARTCHAR C113
ENCODING 75
SWIDTH 384 0
DWIDTH 5 0
BBX 5 8 0 -1
BITMAP
00
88
90
e0
90
90
88
00
ENDCHAR
STARTCHAR C114
ENCODING 76
SWIDTH 384 0
DWIDTH 5 0
BBX 5 8 0 -1
BITMAP
00
80
80
80
80
80
f0
00
ENDCHAR
STARTCHAR C115
ENCODING 77
SWIDTH 384 0
DWIDTH 5 0
BBX 5 8 0 -1
BITMAP
00
88
d8
a8
88
88
88
00
ENDCHAR
STARTCHAR C116
ENCODING 78
SWIDTH 384 0
DWIDTH 5 0
BBX 5 8 0 -1
BITMAP
00
90
d0
b0
90
90
90
00
ENDCHAR
STARTCHAR C117
ENCODING 79
SWIDTH 384 0
DWIDTH 5 0
BBX 5 8 0 -1
BITMAP
00
60
90
90
90
90
60
00
ENDCHAR
STARTCHAR C120
ENCODING 80
SWIDTH 384 0
DWIDTH 5 0
BBX 5 8 0 -1
BITMAP
00
e0
90
90
e0
80
80
00
ENDCHAR
STARTCHAR C121
ENCODING 81
SWIDTH 384 0
DWIDTH 5 0
BBX 5 8 0 -1
BITMAP
00
70
88
88
a8
98
78
00
ENDCHAR
STARTCHAR C122
ENCODING 82
SWIDTH 384 0
DWIDTH 5 0
BBX 5 8 0 -1
BITMAP
00
e0
90
90
e0
a0
90
00
ENDCHAR
STARTCHAR C123
ENCODING 83
SWIDTH 384 0
DWIDTH 5 0
BBX 5 8 0 -1
BITMAP
00
60
90
c0
30
90
60
00
ENDCHAR
STARTCHAR C124
ENCODING 84
SWIDTH 384 0
DWIDTH 5 0
BBX 5 8 0 -1
BITMAP
00
f8
20
20
20
20
20
00
ENDCHAR
STARTCHAR C125
ENCODING 85
SWIDTH 384 0
DWIDTH 5 0
BBX 5 8 0 -1
BITMAP
00
88
88
88
88
88
70
00
ENDCHAR
STARTCHAR C126
ENCODING 86
SWIDTH 384 0
DWIDTH 5 0
BBX 5 8 0 -1
BITMAP
00
88
88
88
50
20
20
00
ENDCHAR
STARTCHAR C127
ENCODING 87
SWIDTH 384 0
DWIDTH 5 0
BBX 5 8 0 -1
BITMAP
00
88
88
a8
a8
50
50
00
ENDCHAR
STARTCHAR C130
ENCODING 88
SWIDTH 384 0
DWIDTH 5 0
BBX 5 8 0 -1
BITMAP
00
88
50
20
50
88
88
00
ENDCHAR
STARTCHAR C131
ENCODING 89
SWIDTH 384 0
DWIDTH 5 0
BBX 5 8 0 -1
BITMAP
00
88
88
50
20
20
20
00
ENDCHAR
STARTCHAR C132
ENCODING 90
SWIDTH 384 0
DWIDTH 5 0
BBX 5 8 0 -1
BITMAP
00
f0
10
20
40
80
f0
00
ENDCHAR
STARTCHAR C133
ENCODING 91
SWIDTH 384 0
DWIDTH 5 0
BBX 5 8 0 -1
BITMAP
00
e0
80
80
80
80
e0
00
ENDCHAR
STARTCHAR C134
ENCODING 92
SWIDTH 384 0
DWIDTH 5 0
BBX 5 8 0 -1
BITMAP
00
80
80
40
20
10
10
00
ENDCHAR
STARTCHAR C135
ENCODING 93
SWIDTH 384 0
DWIDTH 5 0
BBX 5 8 0 -1
BITMAP
00
e0
20
20
20
20
e0
00
ENDCHAR
STARTCHAR C136
ENCODING 94
SWIDTH 384 0
DWIDTH 5 0
BBX 5 8 0 -1
BITMAP
20
50
88
00
00
00
00
00
ENDCHAR
STARTCHAR C137
ENCODING 95
SWIDTH 384 0
DWIDTH 5 0
BBX 5 8 0 -1
BITMAP
00
00
00
00
00
00
f8
00
ENDCHAR
STARTCHAR C140
ENCODING 96
SWIDTH 384 0
DWIDTH 5 0
BBX 5 8 0 -1
BITMAP
20
40
80
00
00
00
00
00
ENDCHAR
STARTCHAR C141
ENCODING 97
SWIDTH 384 0
DWIDTH 5 0
BBX 5 8 0 -1
BITMAP
00
00
60
10
70
90
60
00
ENDCHAR
STARTCHAR C142
ENCODING 98
SWIDTH 384 0
DWIDTH 5 0
BBX 5 8 0 -1
BITMAP
00
80
80
e0
90
90
e0
00
ENDCHAR
STARTCHAR C143
ENCODING 99
SWIDTH 384 0
DWIDTH 5 0
BBX 5 8 0 -1
BITMAP
00
00
00
70
80
80
70
00
ENDCHAR
STARTCHAR C144
ENCODING 100
SWIDTH 384 0
DWIDTH 5 0
BBX 5 8 0 -1
BITMAP
00
10
10
70
90
90
70
00
ENDCHAR
STARTCHAR C145
ENCODING 101
SWIDTH 384 0
DWIDTH 5 0
BBX 5 8 0 -1
BITMAP
00
00
60
90
f0
80
60
00
ENDCHAR
STARTCHAR C146
ENCODING 102
SWIDTH 384 0
DWIDTH 5 0
BBX 5 8 0 -1
BITMAP
00
30
40
e0
40
40
40
00
ENDCHAR
STARTCHAR C147
ENCODING 103
SWIDTH 384 0
DWIDTH 5 0
BBX 5 8 0 -1
BITMAP
00
00
70
90
90
30
90
60
ENDCHAR
STARTCHAR C150
ENCODING 104
SWIDTH 384 0
DWIDTH 5 0
BBX 5 8 0 -1
BITMAP
00
80
80
e0
90
90
90
00
ENDCHAR
STARTCHAR C151
ENCODING 105
SWIDTH 384 0
DWIDTH 5 0
BBX 5 8 0 -1
BITMAP
00
20
00
20
20
20
20
00
ENDCHAR
STARTCHAR C152
ENCODING 106
SWIDTH 384 0
DWIDTH 5 0
BBX 5 8 0 -1
BITMAP
00
20
00
20
20
20
20
c0
ENDCHAR
STARTCHAR C153
ENCODING 107
SWIDTH 384 0
DWIDTH 5 0
BBX 5 8 0 -1
BITMAP
00
80
80
a0
c0
a0
90
00
ENDCHAR
STARTCHAR C154
ENCODING 108
SWIDTH 384 0
DWIDTH 5 0
BBX 5 8 0 -1
BITMAP
00
20
20
20
20
20
20
00
ENDCHAR
STARTCHAR C155
ENCODING 109
SWIDTH 384 0
DWIDTH 5 0
BBX 5 8 0 -1
BITMAP
00
00
00
f0
a8
a8
88
00
ENDCHAR
STARTCHAR C156
ENCODING 110
SWIDTH 384 0
DWIDTH 5 0
BBX 5 8 0 -1
BITMAP
00
00
00
e0
90
90
90
00
ENDCHAR
STARTCHAR C157
ENCODING 111
SWIDTH 384 0
DWIDTH 5 0
BBX 5 8 0 -1
BITMAP
00
00
00
60
90
90
60
00
ENDCHAR
STARTCHAR C160
ENCODING 112
SWIDTH 384 0
DWIDTH 5 0
BBX 5 8 0 -1
BITMAP
00
00
00
e0
90
90
e0
80
ENDCHAR
STARTCHAR C161
ENCODING 113
SWIDTH 384 0
DWIDTH 5 0
BBX 5 8 0 -1
BITMAP
00
00
00
70
90
90
70
18
ENDCHAR
STARTCHAR C162
ENCODING 114
SWIDTH 384 0
DWIDTH 5 0
BBX 5 8 0 -1
BITMAP
00
00
00
b0
c0
80
80
00
ENDCHAR
STARTCHAR C163
ENCODING 115
SWIDTH 384 0
DWIDTH 5 0
BBX 5 8 0 -1
BITMAP
00
00
70
80
70
08
70
00
ENDCHAR
STARTCHAR C164
ENCODING 116
SWIDTH 384 0
DWIDTH 5 0
BBX 5 8 0 -1
BITMAP
00
40
40
e0
40
40
20
00
ENDCHAR
STARTCHAR C165
ENCODING 117
SWIDTH 384 0
DWIDTH 5 0
BBX 5 8 0 -1
BITMAP
00
00
00
90
90
90
70
00
ENDCHAR
STARTCHAR C166
ENCODING 118
SWIDTH 384 0
DWIDTH 5 0
BBX 5 8 0 -1
BITMAP
00
00
00
88
88
50
20
00
ENDCHAR
STARTCHAR C167
ENCODING 119
SWIDTH 384 0
DWIDTH 5 0
BBX 5 8 0 -1
BITMAP
00
00
00
88
a8
a8
50
00
ENDCHAR
STARTCHAR C170
ENCODING 120
SWIDTH 384 0
DWIDTH 5 0
BBX 5 8 0 -1
BITMAP
00
00
88
50
20
50
88
00
ENDCHAR
STARTCHAR C171
ENCODING 121
SWIDTH 384 0
DWIDTH 5 0
BBX 5 8 0 -1
BITMAP
00
00
00
90
90
70
10
60
ENDCHAR
STARTCHAR C172
ENCODING 122
SWIDTH 384 0
DWIDTH 5 0
BBX 5 8 0 -1
BITMAP
00
00
00
f0
20
40
f0
00
ENDCHAR
STARTCHAR C173
ENCODING 123
SWIDTH 384 0
DWIDTH 5 0
BBX 5 8 0 -1
BITMAP
10
20
20
40
20
20
10
00
ENDCHAR
STARTCHAR C174
ENCODING 124
SWIDTH 384 0
DWIDTH 5 0
BBX 5 8 0 -1
BITMAP
20
20
20
00
20
20
20
00
ENDCHAR
STARTCHAR C175
ENCODING 125
SWIDTH 384 0
DWIDTH 5 0
BBX 5 8 0 -1
BITMAP
40
20
20
10
20
20
40
00
ENDCHAR
STARTCHAR C176
ENCODING 126
SWIDTH 384 0
DWIDTH 5 0
BBX 5 8 0 -1
BITMAP
50
a0
00
00
00
00
00
00
ENDCHAR
STARTCHAR C177
ENCODING 127
SWIDTH 384 0
DWIDTH 5 0
BBX 5 8 0 -1
BITMAP
00
00
00
00
00
00
00
00
ENDCHAR
STARTCHAR C200
ENCODING 128
SWIDTH 384 0
DWIDTH 5 0
BBX 5 8 0 -1
BITMAP
00
00
00
00
00
00
00
00
ENDCHAR
STARTCHAR C201
ENCODING 129
SWIDTH 384 0
DWIDTH 5 0
BBX 5 8 0 -1
BITMAP
00
00
00
00
00
00
00
00
ENDCHAR
STARTCHAR C202
ENCODING 130
SWIDTH 384 0
DWIDTH 5 0
BBX 5 8 0 -1
BITMAP
00
00
00
00
00
00
00
00
ENDCHAR
STARTCHAR C203
ENCODING 131
SWIDTH 384 0
DWIDTH 5 0
BBX 5 8 0 -1
BITMAP
00
00
00
00
00
00
00
00
ENDCHAR
STARTCHAR C204
ENCODING 132
SWIDTH 384 0
DWIDTH 5 0
BBX 5 8 0 -1
BITMAP
00
00
00
00
00
00
00
00
ENDCHAR
STARTCHAR C227
ENCODING 151
SWIDTH 384 0
DWIDTH 5 0
BBX 5 8 0 -1
BITMAP
00
00
00
00
00
00
00
00
ENDCHAR
STARTCHAR C230
ENCODING 152
SWIDTH 384 0
DWIDTH 5 0
BBX 5 8 0 -1
BITMAP
00
00
00
00
00
00
00
00
ENDCHAR
STARTCHAR C232
ENCODING 154
SWIDTH 384 0
DWIDTH 5 0
BBX 5 8 0 -1
BITMAP
00
00
00
00
00
00
00
00
ENDCHAR
STARTCHAR C241
ENCODING 161
SWIDTH 384 0
DWIDTH 5 0
BBX 5 8 0 -1
BITMAP
00
00
00
00
00
00
00
00
ENDCHAR
STARTCHAR C242
ENCODING 162
SWIDTH 384 0
DWIDTH 5 0
BBX 5 8 0 -1
BITMAP
00
00
00
00
00
00
00
00
ENDCHAR
STARTCHAR C250
ENCODING 168
SWIDTH 384 0
DWIDTH 5 0
BBX 5 8 0 -1
BITMAP
00
00
00
00
00
00
00
00
ENDCHAR
STARTCHAR C252
ENCODING 170
SWIDTH 384 0
DWIDTH 5 0
BBX 5 8 0 -1
BITMAP
00
00
00
00
00
00
00
00
ENDCHAR
STARTCHAR C255
ENCODING 173
SWIDTH 384 0
DWIDTH 5 0
BBX 5 8 0 -1
BITMAP
00
00
00
00
00
00
00
00
ENDCHAR
STARTCHAR C302
ENCODING 194
SWIDTH 384 0
DWIDTH 5 0
BBX 5 8 0 -1
BITMAP
00
00
00
00
00
00
00
00
ENDCHAR
STARTCHAR C303
ENCODING 195
SWIDTH 384 0
DWIDTH 5 0
BBX 5 8 0 -1
BITMAP
00
00
00
00
00
00
00
00
ENDCHAR
STARTCHAR C311
ENCODING 201
SWIDTH 384 0
DWIDTH 5 0
BBX 5 8 0 -1
BITMAP
00
00
00
00
00
00
00
00
ENDCHAR
STARTCHAR C343
ENCODING 227
SWIDTH 384 0
DWIDTH 5 0
BBX 5 8 0 -1
BITMAP
00
00
00
00
00
00
00
00
ENDCHAR
STARTCHAR C365
ENCODING 245
SWIDTH 384 0
DWIDTH 5 0
BBX 5 8 0 -1
BITMAP
00
00
00
00
00
00
00
00
ENDCHAR
ENDFONT
